<svg xmlns="http://www.w3.org/2000/svg" width="31.342" height="69.794" viewBox="0 0 31.342 69.794">
  <path id="arrowdown" d="M0,43.029l.645-1.215c-.585-2.2.709,3.15.917.969.37-2.784-1.405-.139-1.419-2.8,2.247,1.005,4.383,1.67,6.813.994.7.323,1.233.526,1.936,0l.645.883c.4.135.628-.429.574-.883.2-.133.346.333.43.552a2.187,2.187,0,0,1,1,0,1.809,1.809,0,0,0,0-1.546c.034-.522.378-2.079,0-2.54.418.058.277-.675.215-1.215-.233.377-.015-7.89-.43-7.511a.4.4,0,0,0-.072-.221.469.469,0,0,1,.287-.11c-.092-6.138.251-13.251.215-19.771L11.332,6.4c.905-.841-.349-2.79.215-3.534,1.55-2.047,1.442,6.9.682,4.6-.812-2.463.948.946-.213-1.347-.458-3.655.135.924-.252-3.025A8.9,8.9,0,0,1,12.408,0a56.215,56.215,0,0,0,9.109.773c-.96,10.417-1.6,18.34-1.255,28.669-.072,2.953-.845-3.586-.359-1.063-.827,2.261.808-12.3.108-9.78a24.911,24.911,0,0,1,.646,3.045c-.319-.049-.22.689,0,.663a11.155,11.155,0,0,0,0,2.982c-.231.16-.122,2.068-.144,2.32.035,1.348-.109,4-.072,5.191.117-.029-.269,1.022-.215.994l.287,3.093c0,.473,0,1.75,0,2.209-.529.394-.884-.85-1.219-.994l-1.076.994a8.384,8.384,0,0,0,2.008.332,5.115,5.115,0,0,1,.43.552,11.808,11.808,0,0,0-.144,1.325c1.32-.045,3.2.174,4.375-.331l.215.331,6.24.221c-.241,4.075.18-3.1-.144.841-1.1.072-15.127,28-15.779,27.42Zm29.8,3.4h.5c-.164-.405-.272-1.068-.43-1.436a5.47,5.47,0,0,1-.071,1.436M22.9,41.62v1.767H24.91a12.337,12.337,0,0,0,1.578,2.872V44.934a2.319,2.319,0,0,1,1.722,0V44.05a5.07,5.07,0,0,0-2.439.663l-.43-.663c.066-.406.164-.6.43-.663.08-.362-.56-3.2,0-3.093.159-.5-.428-1.563-.645-1.988,0,.54-.05,1.527.215,1.657h-.43a4.114,4.114,0,0,0,.215,1.657c-.366-.013-.353-.051-.359.552.048,0,.1.036.143.11-.047.072-.238.331-.574.773-.146-.73-.012-1.424-.861-1.878Zm5.1,8.894a8.815,8.815,0,0,1,.215,1.215h.86V49.962h-.717ZM14.992,61.022c-.434,2.154,1.65.237,1-.884.951.1.621.806.789,1.436l.287-.442q-.215-2.1-1.506-1.325v1.215Zm9.788-13.6a5.091,5.091,0,0,0-.072.552c.381.5.68-.469.072-.552m-.574,0c-.492.009-.009.647.215.663Zm-.215,3.424H23.7a3.527,3.527,0,0,0,.5.994Zm-3.084-5.854c.354.7.484,2,1.435,1.988l.5-.552a4.187,4.187,0,0,0,1.148.331,2.441,2.441,0,0,0,0-1.767l-1.507-.442a7.712,7.712,0,0,1-1.578.442m.609,2c.347-.166.226.631,0,.663Zm-.322,1.315H23.2l.143-.663c-.58.3-.8.174-1-.221a11.53,11.53,0,0,1-1.148.884m.359-2.761a2.281,2.281,0,0,0,.5.221,1.426,1.426,0,0,1-.072.442c-.442.044-.2-.548-.43-.663m.43-2.209h-.717a4.608,4.608,0,0,1,.717.552Zm-.789,6.958.215-.663a5.733,5.733,0,0,0-1.148.331,6.248,6.248,0,0,0,.933.331m-.287.552a.468.468,0,0,0-.287.11,1,1,0,0,0,.574.884Zm-1.434-5.633a2.761,2.761,0,0,1,.43,1.215h.645a12.41,12.41,0,0,1-.215-1.436l-.574-.442ZM11.8,32.4a.4.4,0,0,1,.072.221.843.843,0,0,0,.359.111c.006-.174.261-.2.43-.332.063.6.46,2.052,1.219,1.546l-.215-.884c.257.143.3-.562.645-.331q.073.663.359.663l.144-.663h.717v.994a4.923,4.923,0,0,1,1.219-.331V32.4a1.01,1.01,0,0,0,.933,0l-.359,1.325h.359v.552a2.25,2.25,0,0,0-.574.331H16.46c.335-.056.112,1.506,0,1.546l-.574-.332v-.884a.338.338,0,0,0-.5,0,.406.406,0,0,1-.072.221l-2.08-.221.43.663.789-.442.215.663c-.417-.059-.276.673-.215,1.215q.933-.111,1.793-.221v.552c-.582.01-1.616-.091-1.937.331a2.406,2.406,0,0,1-.215,1.325v-.994l-.645-.332a1.248,1.248,0,0,0,1.219,2.1l.144-.552,1.076-.221v-.994q.5-.223,1,.994a3.88,3.88,0,0,1,1.65-2.54c-.415-.291-.864-4.761.143-4.418l.287,1.325c.367.035.26-.621.144-.994V31.186h-.789a4.607,4.607,0,0,1-.144-1.546,5.715,5.715,0,0,1-1.721.883q.145.663.287,1.325l-.717.884c-.144-.074-.287-.148-.43-.221a1.691,1.691,0,0,0,.072-.663,7.28,7.28,0,0,1-1-.331l.43-1.325a3.623,3.623,0,0,0-.287-.552c.823-.386,1.021-.208,2.295,0,.108-.891-.031-1.27.215-1.657q.359.44.86,1.1a7.208,7.208,0,0,1,.144-1.878h.359a7.189,7.189,0,0,1,.144.994c-.423.146.081.67.287.884.193-1.448-.017-1.536.574-1.988a1.2,1.2,0,0,0,.071-.331l-.789-.221c.057-.56.229-.434.5-.663V24.669h.43c-.842-1.212-.656-1.978-.574-3.2a.528.528,0,0,1-.646,0l-.359-.884c-.19.072-.406.147-.645.221-.278,1.288-.837,2.168-.215,3.2l-1.219.663V23.344h-.574l.574,1.878h.5a2.076,2.076,0,0,1-.645.994,1.366,1.366,0,0,1,.143.331q.646-.222,1.219-.442v.663c-.254.267-.57.283-1,.442q.072.771.43.552v.552l-.646.773c-.618.184-1.265-.562-1.793-.773a2.268,2.268,0,0,0-.574.331q.288,1.1.43,1.546a1.37,1.37,0,0,1-1.076,0l-.215.994c.677.308.711.066,1.219.442-.573.8-1.649.145-2.152.221-.144.368-.239.552-.287.552M11.132,54.27l.144,1.325h.717c.151.13-.131.956,0,1.215h.359V55.6a1.685,1.685,0,0,0,.861,0l-.5,2.43h-.574l.215.663,2.008-.663q.5.663.646.663.215-.663.43-.663l.144,1.325q.5-.111.645,0a11.348,11.348,0,0,0-.287-1.657c-1.329-.382-.845-.338-1.148-1.878h-.645c-.019-.233.024-.8.215-.663a.841.841,0,0,1,.43-.221V52.944a1.226,1.226,0,0,1-.861-.221v.884a2.192,2.192,0,0,1,.359.221,3.609,3.609,0,0,1-.143.773,11.419,11.419,0,0,0-2.582.552,3.641,3.641,0,0,0-.287-.552c.74-.553.649-1.613.861-2.43h-.574a2.916,2.916,0,0,1-.43,2.1m8.2-12.812c-.144.072-.287.147-.43.221a2.076,2.076,0,0,0,.574,1.1q-.071-.663-.143-1.325m-.215-7.179c-.22.426-.112.53,0,.883a.835.835,0,0,0,.359-.773.565.565,0,0,0-.359-.11M12.229,11.194v1.878a.236.236,0,0,1,.215.11c.112.686.768-.2.789-.663h.861l-.43,1.215a3.581,3.581,0,0,1,.43.552l.359-.884H15.1v-.552a6.967,6.967,0,0,0,1.793,1.215v1.215h.43c-.008.6-.019.68-.574,1.215a2.887,2.887,0,0,1,0,1.325l1.937.552v-.221a.869.869,0,0,0,.287-.11l-.287-.552-1-.332c.233-.009.224-.967.5-.994q.718.22,1.148.331v-.552h-.646c.048-.074,0-.3-.143-.663q.5,0,.43-.994l-1.291.442c.056-.259.017-.588-.215-.663l2.008-2.872c-.047-.3-.1-.59-.143-.884-.621-.148-.956-.221-1-.221l.215-1.1c-.1-.074-.263,0-.5.221q-.071,0-.359.332l-.215-1.1,1.076-.994c-.054-.566.158-.939-.215-1.215a11.611,11.611,0,0,0-.43,1.215l-2.223.442v.552h1.434v.552H16.03l-.5,1.1c-.127.049-.337-.507-.43-.773a9.876,9.876,0,0,0-2.654.221,12.34,12.34,0,0,1,.215,1.325Zm6.455,16.682a3.942,3.942,0,0,0,0,1.988q.145-.663.287-1.215a3.258,3.258,0,0,1,.5-.331q-.143-.443-.789-.442m.43,1.984a1.308,1.308,0,0,0-.287.331,1.224,1.224,0,0,0,.5.773Zm-4.447-6.954q.215,0,.43,1.325l.789.331a1.607,1.607,0,0,1-.071.773A1.858,1.858,0,0,0,16.891,26l.43-.884h.215a1.19,1.19,0,0,1-.072.331,1.2,1.2,0,0,0,.717,0V24.232a3.26,3.26,0,0,0,.789-.663c-.581.066-2.854.4-3.3.442l-.359-1.1.932-.221v-.663a1.767,1.767,0,0,0-.645-.111,3.784,3.784,0,0,1,1.291-.883c.1-.221.168-.406.215-.552-3.257-.455-1.014,1.465-2.582,2.319.048,0,.1.036.143.111m0-5.3a6.182,6.182,0,0,1,0,2.54c.3.2.637-1.236.861-1.325a1.291,1.291,0,0,0,1.219.663l-.5-.884,1.936-.331-.287-.663c-.648-.052-1.708.3-1.434-.884a8.546,8.546,0,0,1,2.51.332V16.39a1.809,1.809,0,0,0-1.076-.332c.385-1.064.994-1.5.789-2.54a1.631,1.631,0,0,0-.359,1.1,2.706,2.706,0,0,0-1.219.221v1.215c-1.14.873-.758-.917-2.295,0v.663a6.205,6.205,0,0,1,1.219.332l-.144.552Zm3.658-6.742a1.63,1.63,0,0,1,.574.332l-.215.331c-.326,0-.257-.506-.359-.663m.215,13.921v.663c.443.028.505-.578,0-.663m0-17.12a2.632,2.632,0,0,0-.144.552.463.463,0,0,1,.287.11c.331-.181.283-.564-.143-.663m0,43.4c-.788-.347-.6.674.143.773Zm-.861-25.183c.171-.753.291-1.672,1-.884a1.3,1.3,0,0,1-.5.884Zm0-3.976,1,.221-.143.552a3.355,3.355,0,0,0-.359.331v.111c-.586-.132-.384-.834-.5-1.215m.645,1.767a1.148,1.148,0,0,1,.215.442.93.93,0,0,1-.215.221Zm-2.3,4.533c.2.284.8.712,1.076.663l.359-.663a1.824,1.824,0,0,0,.789-.442,1.439,1.439,0,0,1,.287-1.1Q18.469,26,18.325,26q-.43.883-.861,1.878ZM17.715,42.5v.773l.43.442c-.047,0-.1.036-.144.111a1.426,1.426,0,0,1-.071.442c.373.352,1.529-.072,2.008,0l-.215.883H17.931l.215.663.574-.221.215.773h-.789l-.215.773h1v.884a6.222,6.222,0,0,0-1.219.331,5.845,5.845,0,0,1,0,2.1h.43q.072-.663.144-1.546c.055.162,1.368.13,1.434,0,.378-.176.742-.889,1.076-1.215a2.682,2.682,0,0,0-1.219.332v-.884h.789a1.791,1.791,0,0,1,.215.442,6.243,6.243,0,0,1-3.658.552c.22-.688,4.682-2.186,6.527-1.767,0-.516.048-.773.144-.773v-.663H22.377c.135-.746.573-1.558-.215-1.657-.144.147-.287.293-.43.442l-.215-.663h1.076c-.047-.295-.1-.59-.144-.883-1.283-.375-3.084.477-4.734.331m-4.483-9.208q.718,0,.861.332c-.144.072-.287.147-.43.221l-.215.883h3.442c.215-.1.243-1.391.43-1.436a2.556,2.556,0,0,0,.86.332V32.295l-2.151.221v1.1a11.336,11.336,0,0,0-1.219.221q-.071-.994.5-.994a1.473,1.473,0,0,0-.144.332.566.566,0,0,1,.359.11v-.773l-1.65.331v-.552h-.43ZM17.464,4.9c.086.482.258,1,.646.442a.688.688,0,0,0-.646-.442m.215,41.3a1.36,1.36,0,0,0-.144-.331,1.749,1.749,0,0,1,.359-.331c-.037.342.127.623-.215.663m0-33.356a7.727,7.727,0,0,0,.215-.773c-.1.514-.167.773-.215.773m-.933,9.835h1.148l-.215-.884h-.789Zm.717,12.476a3.455,3.455,0,0,1,.215.663,2.2,2.2,0,0,0-.359-.221,1.479,1.479,0,0,1,.143-.442m-.574,11.266.43-.663a2.636,2.636,0,0,0-.144.552.474.474,0,0,1-.287.111m-.144-5.523c-.083.587.144.7.574.442a1.468,1.468,0,0,0-.574-.442m.144-3.2a1.361,1.361,0,0,0-.144-.331,1.753,1.753,0,0,1,.359-.331c-.035.286.143.662-.215.663m-.43-34.24h.645q.073,1.214-.359,1.215V4.125c-.19,0-.287-.221-.287-.663m.287,7.179.359-.552-.359.552M16.03,6.555l.215.552h.646l.215-.552Zm.43,5.964c.556.012.833.809.287.884q-.43,0-.287-.884M12.874,8.327v.221a2.652,2.652,0,0,1,.789.111V9.21a.826.826,0,0,0-.359.11.566.566,0,0,0,.574.442q.431-.663.789-.552c1.356,1.756,3.646-.474,1.363-1.546V7c.24-.074.478-.148.717-.221.15-.36-.268-.78-.287-.994.354-.428.6-1.222-.215-1.215l-.215.552c.227-.137.433.381.43.663a5.274,5.274,0,0,0-.933.663,20.661,20.661,0,0,0,.359,2.761h-.574c-.165-.476-.182-.6,0-.884L15.1,7.333c-.222.087-.337.41-.43.663a1.808,1.808,0,0,0-1-.331ZM16.46,33.841q.072-.994.287-.994a.869.869,0,0,1,.215.221c-.1.514-.263.773-.5.773m0,8.169c.1.514.192.773.287.773.364-.2.045-.7-.287-.773M15.313,26.441a.833.833,0,1,0,1.578.221,1.774,1.774,0,0,1-1.219.331c-.144-.369-.262-.552-.359-.552m.932-14.8c-.1.221-.119.368-.071.442q.43.22.717.332l-.144-1.325a.824.824,0,0,0-.359.111.535.535,0,0,1-.144.442m.215-8.615c-.047,0-.1.036-.144.11.192.293.335.442.43.442Zm-.43,18.22c.237.273.037.657.43.663v-.663Zm-1.721-5.633v.552c.144.147.24.221.287.221a.85.85,0,0,0,.717.11l-.215-.883h.574v.552c-.144,0-.191.183-.144.552a2,2,0,0,0,.933-.221c-.275-.514-.128-1.663-1.147-1.546Zm1.578,34.019A2.037,2.037,0,0,0,16.03,51.4c-.23-.245.694-1.637-.144-1.767M13.663,26.1c.9.074.382.973.358,1.326.147.735,1.793.168,1.578-.331a4.8,4.8,0,0,1,.072-1.215h-1V24.89c-.334.072-.526.072-.574,0l-.215.663c-.3-.358-.2.324-.215.552M14.81,4.346l.287.994c.75-.032.683-1.13-.287-.994m.5,19.992a1.948,1.948,0,0,0-.215.552.443.443,0,0,0,.43,0Zm0-5.964c-.517.379-.7.421-.861.663q.575.22,1.076.442Zm-.861-6.517c-.117-.511-.387-1.464.215-1.215v.884h.43a1.644,1.644,0,0,1,.43-.331c.13,1.057-.393.558-1.076.663M15.1,2.248a.608.608,0,0,0-.071-.331,1.368,1.368,0,0,1,.5-.332l-.43.663m-.789,1.109v.552a4.829,4.829,0,0,1,.359,1.215h.646l.215-.552L14.81,3.356ZM15.1,52.171l.215-.773c-.622.029-.829.735-.215.773m-1.865-5.964H14.81a4.9,4.9,0,0,0,.5-.442l-.215-.552-1,.332a2.377,2.377,0,0,0-.43-.111v-.221c-.648-.048-.254.614-.43.994m.215-35.671c-.417.071-.525,1.5.215.883-.191.076-.191,1.248,0,1.325,1.452.371,1.314-1.334,1.65-2.209ZM7.352,44v.552H8.714L9,44Zm7.459,2.429a1.308,1.308,0,0,0-.287.331.821.821,0,0,0,.574.663q0-.994-.287-.994M13.878,13.96c-1.734-.6-1.542,2.764,1.219,1.436v-.552a2.732,2.732,0,0,1-1.219-.221Zm.574-7.842a.578.578,0,0,0,.645.663Zm-.789,2.646c.245.439.545.168.789,0l-.144-.884a3.746,3.746,0,0,0-.645.332Zm-.43,15.247c.006.934-.151,2,.861,1.767l-.43-1.215a1.579,1.579,0,0,1,.574-.111l.143-.221c0-.148-.382-.221-1.148-.221M13.018,17.6c.3.643.214.936.86.994l.43-.552a.61.61,0,0,0-.071-.332,6.419,6.419,0,0,0-1.219-.11M14.093,5.565l.215-.663q-.573,0-.717.331a1.362,1.362,0,0,1,.5.331M13.448,28.65c.123.307-.022.688.43.552.553-.048-.194-.635-.43-.552m.215-18.56c.415-.08.595.828,0,.773-.535.024-.513-.859,0-.773m8.369,49.77h1l-.215,1.878h-.43V60.191Zm-8.8-23.7c.029.309-.11.778.215.663.446-.178.174-.568-.215-.663m0-13.471a5.081,5.081,0,0,0-.072.552c.462.247.8-.614.072-.552m.215,24.074a3.251,3.251,0,0,0-.5.331c.048.368.215.552.5.552Zm-2.224,1.546v.552h.215a.929.929,0,0,0,.215-.221.576.576,0,0,0-.43-.331m0-1.878c-.819,0-.787,1.118.215.994.22-.614.431-.93-.215-.994M8,44.329v.663q.43-.222.789-.442h.86v.994a2.251,2.251,0,0,0-.574.331c.184.706,1.554.065,1.506-.442-.191-.074-.382-.148-.574-.221V44.55A4.608,4.608,0,0,0,11.3,44a.438.438,0,0,0,.215-.11,7.164,7.164,0,0,0-2.3-.221l.43-.884-1.076-.442.215,1.546Zm2.869,5.633a3.126,3.126,0,0,0-.215.663,2.207,2.207,0,0,1,.359.221c.239-.486.385-.828-.144-.884m.758-7.671a1.948,1.948,0,0,0-.215.552.237.237,0,0,1,.215.111V44.5c.688.169,1.549-1.173,2.008-1.546h1.649l.215-.884c-.546-.041-2.087.725-2.654.663a.846.846,0,0,0-.43-.221q-.573-.331-.789-.221M7.136,44.55V45.1c.5.38.614-.5,0-.552m-3.586,0v.663H4.985v.552c-1.059.034-.362,1.137.574.994l.359-.552a.617.617,0,0,0,.717.221l-.43-.884q-.215.22-.43-.332c.24-.148.407-.259.5-.331a2.691,2.691,0,0,0,.072-.552l-.574-.442c-.284,0-.359.357-.43.663Zm1.578,1.215.215-.773a7.614,7.614,0,0,1-.215.773M4.77,43c-.43-.013-.554,1.058,0,.884a2.363,2.363,0,0,0,.359-.663A2.215,2.215,0,0,0,4.77,43m-.645,4.639c-.1.072-.191.147-.287.221.048.293.144.442.287.442Zm-.3,9.31a17.192,17.192,0,0,0-.707-4.035l.129-.374,1.014,2.593a8.077,8.077,0,0,1,1.022.543c-.184.63-.337.616-.622,1.065ZM8,38.083h.574c.655.387.331,1.472.574,1.878H9.79c.012.594-.067.809.215,1.1a.28.28,0,0,0,0,.442.431.431,0,0,0-.215.11C8.1,40.958,8.522,40.361,8,38.083" fill="#fff"/>
</svg>
