<svg xmlns="http://www.w3.org/2000/svg" width="140.359" height="63.031" viewBox="0 0 140.359 63.031"><path d="M0,86.532l1.3-2.443c-1.177-4.424,1.425,6.334,1.844,1.949.745-5.6-2.826-.279-2.853-5.64,4.518,2.021,8.814,3.359,13.7,2,1.4.649,2.479,1.059,3.894,0l1.3,1.777c.8.271,1.263-.863,1.154-1.777.393-.267.7.67.865,1.111a4.4,4.4,0,0,1,2.019,0,3.639,3.639,0,0,0,0-3.11c.069-1.049.76-4.181,0-5.109.841.117.556-1.357.433-2.443-.468.759-.03-15.868-.865-15.1a.8.8,0,0,0-.145-.444.942.942,0,0,1,.577-.222c-.185-12.343.505-26.649.433-39.76l-.865-4.443c1.821-1.691-.7-5.612.432-7.108,3.117-4.116,2.9,13.884,1.371,9.246-1.632-4.953,1.906,1.9-.429-2.709-.921-7.35.272,1.859-.508-6.084-.329-1.393.867-4.9,1.3-6.219C28.92.957,39,1.573,43.27,1.555,41.34,22.5,40.06,38.438,40.746,59.209c-.145,5.939-1.7-7.211-.721-2.139-1.662,4.547,1.625-24.727.216-19.668.181,1.635,1.36,4.375,1.3,6.124-.641-.1-.442,1.387,0,1.333-.1,1.32-.438,4.747,0,6-.465.321-.246,4.16-.289,4.665.071,2.712-.219,8.034-.144,10.439.236-.058-.54,2.055-.432,2l.577,6.219c0,.951,0,3.519,0,4.442-1.064.792-1.778-1.709-2.452-2l-2.163,2a16.861,16.861,0,0,0,4.039.667,10.287,10.287,0,0,1,.865,1.11,23.745,23.745,0,0,0-.289,2.666c2.654-.091,6.444.349,8.8-.666l.433.666,12.548.444c-.484,8.194.362-6.237-.289,1.691-2.207.145-30.422,56.3-31.732,55.142Zm59.93,6.836h1.009c-.33-.815-.547-2.149-.866-2.888a11,11,0,0,1-.143,2.888M46.057,83.7v3.554H50.1a24.81,24.81,0,0,0,3.173,5.775V90.364a4.664,4.664,0,0,1,3.462,0V88.587a10.2,10.2,0,0,0-4.9,1.333l-.866-1.333c.133-.816.33-1.207.866-1.333.16-.729-1.127-6.445,0-6.219.319-1.012-.861-3.143-1.3-4,.01,1.086-.1,3.071.432,3.332H50.1a8.274,8.274,0,0,0,.433,3.332c-.737-.025-.71-.1-.721,1.111.1,0,.194.073.288.222-.094.146-.479.667-1.153,1.555-.295-1.468-.023-2.863-1.731-3.776Zm10.266,17.887a17.728,17.728,0,0,1,.433,2.443h1.73v-3.554H57.044ZM30.15,122.716c-.873,4.332,3.318.476,2.019-1.777,1.913.207,1.248,1.621,1.587,2.887l.578-.889q-.433-4.222-3.029-2.666v2.444ZM49.833,95.367a10.239,10.239,0,0,0-.144,1.111c.766,1.006,1.368-.943.144-1.111m-1.154,0c-.989.019-.017,1.3.432,1.333Zm-.432,6.886h-.578a7.092,7.092,0,0,0,1.01,2Zm-6.2-11.773c.712,1.4.974,4.026,2.885,4l1.009-1.11a8.421,8.421,0,0,0,2.309.666c.293-.97.595-2.684,0-3.554l-3.03-.888a15.51,15.51,0,0,1-3.173.888M43.268,94.5c.7-.333.455,1.269,0,1.333Zm-.647,2.645H46.66l.288-1.333c-1.167.6-1.606.35-2.019-.444a23.186,23.186,0,0,1-2.308,1.777m.721-5.553a4.587,4.587,0,0,0,1.01.444,2.868,2.868,0,0,1-.144.889c-.888.089-.4-1.1-.866-1.333m.866-4.443H42.766a9.268,9.268,0,0,1,1.442,1.111Zm-1.587,13.994.432-1.333a11.53,11.53,0,0,0-2.308.667,12.565,12.565,0,0,0,1.875.666m-.577,1.111a.941.941,0,0,0-.577.222,2,2,0,0,0,1.154,1.777ZM39.159,90.924a5.553,5.553,0,0,1,.865,2.444h1.3a24.957,24.957,0,0,1-.432-2.888q-.287-.223-1.154-.888ZM23.727,65.158a.8.8,0,0,1,.144.444,1.7,1.7,0,0,0,.721.222c.013-.351.525-.4.865-.667.127,1.2.925,4.127,2.451,3.11l-.432-1.777c.516.288.6-1.131,1.3-.666q.146,1.333.721,1.333l.289-1.333h1.442v2a9.9,9.9,0,0,1,2.452-.666v-2a2.032,2.032,0,0,0,1.875,0l-.721,2.666h.721v1.111A4.525,4.525,0,0,0,34.4,69.6H33.1c.674-.112.225,3.028,0,3.11l-1.154-.667V70.267a.679.679,0,0,0-1.009,0,.816.816,0,0,1-.144.444l-4.183-.444.866,1.333,1.587-.889.432,1.333c-.84-.119-.554,1.353-.432,2.443q1.876-.224,3.606-.444v1.111c-1.171.019-3.25-.184-3.894.666a4.839,4.839,0,0,1-.432,2.666v-2l-1.3-.667a2.51,2.51,0,0,0,2.451,4.22l.289-1.11,2.163-.444v-2q1.011-.448,2.02,2,1.156-4,3.318-5.109c-.834-.586-1.738-9.575.288-8.885l.577,2.666c.738.07.522-1.248.289-2V62.715H36.852a9.265,9.265,0,0,1-.289-3.109A11.493,11.493,0,0,1,33.1,61.382q.291,1.333.577,2.666l-1.442,1.777c-.289-.149-.577-.3-.865-.444a3.4,3.4,0,0,0,.145-1.333,14.64,14.64,0,0,1-2.02-.666l.865-2.666a7.285,7.285,0,0,0-.577-1.111c1.655-.776,2.053-.418,4.615,0,.217-1.792-.061-2.553.433-3.332q.723.885,1.73,2.221a14.5,14.5,0,0,1,.289-3.776h.721a14.458,14.458,0,0,1,.289,2c-.85.294.163,1.347.577,1.777.388-2.911-.035-3.089,1.154-4a2.416,2.416,0,0,0,.144-.667l-1.587-.444c.114-1.126.46-.872,1.01-1.332V49.61h.865c-1.693-2.438-1.32-3.978-1.153-6.441a1.061,1.061,0,0,1-1.3,0l-.721-1.777c-.383.146-.816.295-1.3.444-.56,2.59-1.684,4.36-.433,6.442L32.669,49.61V46.945H31.515l1.153,3.776h1.01a4.176,4.176,0,0,1-1.3,2,2.748,2.748,0,0,1,.288.666q1.3-.447,2.452-.889V53.83c-.511.537-1.147.568-2.019.889q.145,1.551.865,1.111v1.11l-1.3,1.555c-1.244.371-2.544-1.13-3.606-1.555a4.562,4.562,0,0,0-1.154.666q.579,2.218.865,3.11a2.755,2.755,0,0,1-2.163,0l-.432,2c1.361.619,1.431.132,2.452.889-1.153,1.615-3.317.291-4.328.444-.289.739-.48,1.11-.577,1.11m-1.339,43.98.289,2.666h1.442c.3.262-.264,1.922,0,2.443h.721V111.8a3.388,3.388,0,0,0,1.731,0l-1.01,4.886H24.407l.432,1.333,4.039-1.333q1.011,1.333,1.3,1.333.432-1.333.865-1.333l.289,2.666q1.011-.224,1.3,0a22.821,22.821,0,0,0-.577-3.332c-2.673-.769-1.7-.681-2.308-3.776h-1.3c-.038-.468.048-1.6.432-1.333a1.691,1.691,0,0,1,.865-.444v-4a2.465,2.465,0,0,1-1.731-.444v1.777a4.409,4.409,0,0,1,.721.444,7.258,7.258,0,0,1-.288,1.555,22.964,22.964,0,0,0-5.193,1.111,7.321,7.321,0,0,0-.577-1.111c1.489-1.112,1.3-3.243,1.731-4.886H23.253c.489,1.59-.3,2.919-.865,4.22M38.872,83.372c-.289.146-.577.3-.865.444a4.176,4.176,0,0,0,1.153,2.221q-.142-1.333-.288-2.666m-.433-14.437c-.443.857-.225,1.066,0,1.777a1.679,1.679,0,0,0,.721-1.555,1.136,1.136,0,0,0-.721-.222M24.592,22.512v3.776a.475.475,0,0,1,.432.222c.224,1.38,1.545-.406,1.587-1.333h1.731l-.865,2.444a7.2,7.2,0,0,1,.865,1.11l.721-1.777h1.3v-1.11a14.011,14.011,0,0,0,3.606,2.443V30.73h.865c-.016,1.2-.038,1.368-1.154,2.443a5.8,5.8,0,0,1,0,2.666l3.894,1.11V36.5a1.749,1.749,0,0,0,.577-.222l-.577-1.11-2.019-.667c.468-.018.451-1.945,1.009-2q1.444.442,2.309.666V32.063h-1.3c.1-.149,0-.594-.288-1.333q1.01,0,.865-2l-2.6.889c.113-.52.035-1.182-.433-1.333l4.039-5.775c-.095-.594-.191-1.187-.288-1.777-1.249-.3-1.923-.444-2.02-.444l.433-2.221c-.192-.149-.528,0-1.01.444q-.142,0-.721.667l-.433-2.221,2.164-2c-.108-1.138.317-1.889-.433-2.444a23.35,23.35,0,0,0-.865,2.444l-4.471.888v1.111H34.4v1.111H32.236l-1.01,2.221c-.256.1-.677-1.019-.866-1.555-1.371-.352-3.73.292-5.336.444a24.816,24.816,0,0,1,.433,2.665ZM37.573,56.061a7.928,7.928,0,0,0,0,4q.291-1.333.577-2.444a6.553,6.553,0,0,1,1.01-.666q-.287-.89-1.587-.889m.865,3.99a2.631,2.631,0,0,0-.577.666,2.461,2.461,0,0,0,1.01,1.555ZM29.5,46.065q.433,0,.865,2.665l1.587.667a3.233,3.233,0,0,1-.144,1.555,3.737,3.737,0,0,0,2.163,1.333l.865-1.777h.432a2.393,2.393,0,0,1-.144.667,2.41,2.41,0,0,0,1.442,0V48.731A6.555,6.555,0,0,0,38.15,47.4c-1.168.133-5.739.8-6.634.888l-.721-2.221,1.875-.444V44.288a3.553,3.553,0,0,0-1.3-.222,7.61,7.61,0,0,1,2.6-1.777c.194-.444.337-.816.432-1.111-6.55-.915-2.039,2.945-5.192,4.664.1,0,.194.073.288.222m0-10.662c.561,1.626.146,3.42,0,5.109.607.4,1.28-2.486,1.731-2.666a2.6,2.6,0,0,0,2.452,1.333L32.669,37.4l3.894-.666L35.986,35.4c-1.3-.1-3.434.612-2.884-1.777a17.187,17.187,0,0,1,5.048.667V32.96a3.638,3.638,0,0,0-2.163-.667c.774-2.139,2-3.012,1.587-5.109a3.281,3.281,0,0,0-.721,2.221,5.443,5.443,0,0,0-2.452.444v2.443c-2.293,1.757-1.524-1.844-4.615,0v1.333a12.478,12.478,0,0,1,2.452.667l-.289,1.11Zm7.356-13.558a3.278,3.278,0,0,1,1.154.667l-.433.666c-.655.006-.516-1.018-.721-1.333m.433,28v1.333c.89.057,1.016-1.162,0-1.333m0-34.429A5.293,5.293,0,0,0,37,16.523a.931.931,0,0,1,.577.222c.665-.363.569-1.134-.288-1.333m0,87.284c-1.585-.7-1.209,1.355.288,1.555ZM35.554,52.054c.345-1.515.586-3.363,2.019-1.777a2.615,2.615,0,0,1-1.01,1.777Zm0-8,2.019.444-.288,1.111a6.748,6.748,0,0,0-.722.666V46.5c-1.178-.266-.772-1.678-1.009-2.443m1.3,3.554a2.308,2.308,0,0,1,.433.889,1.87,1.87,0,0,1-.433.444Zm-4.615,9.116c.4.571,1.6,1.431,2.163,1.333l.721-1.333a3.667,3.667,0,0,0,1.587-.888,2.894,2.894,0,0,1,.578-2.221q-.142-1.333-.433-1.333-.865,1.775-1.731,3.776Zm3.389,28.736v1.555l.865.889c-.095,0-.191.073-.289.222a2.867,2.867,0,0,1-.143.889c.75.708,3.074-.144,4.038,0l-.432,1.777H36.059l.432,1.333c.385-.149.771-.3,1.154-.444l.432,1.555H36.491l-.432,1.555h2.019v1.777a12.512,12.512,0,0,0-2.452.666c.107,1.354.391,3.726,0,4.22h.865q.145-1.333.289-3.109c.11.325,2.75.261,2.884,0,.761-.354,1.493-1.789,2.163-2.444a5.393,5.393,0,0,0-2.452.667V94.792h1.587a3.6,3.6,0,0,1,.433.889,12.555,12.555,0,0,1-7.356,1.11c.443-1.384,9.417-4.4,13.125-3.554,0-1.038.1-1.555.289-1.555V90.349H45c.272-1.5,1.153-3.132-.432-3.332-.289.295-.577.59-.866.889l-.433-1.333h2.164c-.095-.593-.192-1.187-.289-1.777-2.581-.754-6.2.96-9.519.666M26.611,66.944q1.443,0,1.731.667c-.289.146-.577.295-.865.444l-.432,1.777h6.923c.433-.193.49-2.8.865-2.887a5.141,5.141,0,0,0,1.73.667V64.946l-4.327.444v2.221a22.8,22.8,0,0,0-2.452.444q-.142-2,1.01-2a2.962,2.962,0,0,0-.289.667,1.137,1.137,0,0,1,.721.222V65.39l-3.318.666v-1.11h-.865ZM35.121,9.86c.172.969.519,2,1.3.888a1.385,1.385,0,0,0-1.3-.888m.433,83.064a2.735,2.735,0,0,0-.289-.667,3.518,3.518,0,0,1,.721-.666c-.075.687.255,1.253-.432,1.333m0-67.08a15.54,15.54,0,0,0,.432-1.555c-.191,1.034-.336,1.555-.432,1.555M33.679,45.621h2.308l-.432-1.777H33.967Zm1.442,25.09a6.948,6.948,0,0,1,.433,1.333,4.426,4.426,0,0,0-.721-.444,2.974,2.974,0,0,1,.288-.889M33.967,93.368l.865-1.333a5.3,5.3,0,0,0-.289,1.111.953.953,0,0,1-.577.222m-.289-11.106c-.167,1.18.291,1.406,1.154.889a2.951,2.951,0,0,0-1.154-.889m.289-6.442a2.737,2.737,0,0,0-.289-.666,3.526,3.526,0,0,1,.721-.667c-.07.575.288,1.332-.432,1.333M33.1,6.963h1.3q.146,2.442-.721,2.444V8.3c-.383,0-.577-.444-.577-1.333M33.679,21.4,34.4,20.29,33.679,21.4m-1.442-8.218.432,1.11h1.3l.432-1.11ZM33.1,25.177c1.117.024,1.675,1.627.577,1.777q-.865,0-.577-1.777M25.89,16.745v.444a5.333,5.333,0,0,1,1.587.222v1.11a1.661,1.661,0,0,0-.721.222,1.138,1.138,0,0,0,1.153.889q.866-1.333,1.587-1.111c2.726,3.531,7.332-.954,2.741-3.11V14.08c.482-.149.962-.3,1.442-.444.3-.725-.539-1.569-.577-2,.711-.86,1.2-2.457-.433-2.443L32.236,10.3c.456-.276.87.766.866,1.332a10.606,10.606,0,0,0-1.875,1.333,41.549,41.549,0,0,0,.721,5.553H30.794c-.331-.958-.365-1.2,0-1.777l-.433-2c-.446.175-.677.825-.865,1.333a3.636,3.636,0,0,0-2.019-.667ZM33.1,68.055q.145-2,.577-2a1.748,1.748,0,0,1,.433.444c-.192,1.034-.528,1.555-1.01,1.555m0,16.428c.194,1.034.385,1.555.577,1.555.733-.41.091-1.409-.577-1.555m-2.308-31.31a1.675,1.675,0,1,0,3.173.444,3.567,3.567,0,0,1-2.452.666c-.289-.743-.527-1.11-.721-1.11m1.875-29.764c-.191.444-.238.739-.144.889q.865.442,1.442.667L33.679,22.3a1.656,1.656,0,0,0-.721.222,1.076,1.076,0,0,1-.289.888M33.1,6.084c-.095,0-.191.073-.289.222.385.59.674.889.865.889Zm-.866,36.641c.476.55.075,1.322.866,1.333V42.725ZM28.774,31.4v1.111c.289.295.483.444.578.444a1.71,1.71,0,0,0,1.442.222L30.361,31.4h1.154v1.111c-.289,0-.384.368-.289,1.11a4.019,4.019,0,0,0,1.875-.444c-.552-1.034-.257-3.344-2.308-3.109Zm3.173,68.413c-.365,1.773-.391,2.269.289,3.554-.463-.492,1.395-3.292-.289-3.554M27.477,52.5c1.811.149.769,1.957.721,2.666.3,1.478,3.605.338,3.173-.666a9.655,9.655,0,0,1,.145-2.443H29.5v-2c-.671.146-1.057.146-1.153,0l-.433,1.333c-.6-.719-.407.651-.432,1.11M29.784,8.74l.577,2c1.508-.065,1.373-2.272-.577-2m1.01,40.2a3.918,3.918,0,0,0-.433,1.11.892.892,0,0,0,.866,0Zm0-11.995c-1.04.762-1.41.846-1.731,1.333q1.156.443,2.163.889ZM29.063,23.844c-.235-1.028-.777-2.944.432-2.443v1.777h.865a3.306,3.306,0,0,1,.866-.666c.261,2.126-.791,1.122-2.163,1.332m1.3-19.324a1.223,1.223,0,0,0-.143-.666,2.751,2.751,0,0,1,1.009-.667L30.361,4.52M28.774,6.75V7.86A9.711,9.711,0,0,1,29.5,10.3h1.3l.432-1.111L29.784,6.75Zm1.587,98.168.433-1.555c-1.25.059-1.667,1.477-.433,1.555m-3.75-11.994h3.173a9.856,9.856,0,0,0,1.01-.889l-.433-1.111-2.019.667a4.781,4.781,0,0,0-.865-.222v-.444c-1.3-.1-.51,1.235-.866,2m.433-71.736c-.838.143-1.057,3.018.432,1.777-.384.153-.383,2.509,0,2.666,2.921.745,2.642-2.683,3.318-4.442Zm-12.26,67.3v1.11h2.74l.577-1.11Zm15,4.884a2.631,2.631,0,0,0-.577.666,1.651,1.651,0,0,0,1.153,1.333q0-2-.577-2M27.909,28.073c-3.486-1.215-3.1,5.559,2.452,2.888V29.85a5.5,5.5,0,0,1-2.452-.444ZM29.063,12.3a1.163,1.163,0,0,0,1.3,1.333Zm-1.587,5.322c.494.884,1.1.338,1.587,0l-.289-1.777a7.534,7.534,0,0,0-1.3.667Zm-.866,30.661c.011,1.879-.3,4.019,1.731,3.554L27.477,49.4a3.176,3.176,0,0,1,1.154-.222l.288-.444c0-.3-.768-.444-2.308-.444M26.179,35.4c.612,1.293.43,1.882,1.73,2l.865-1.11a1.226,1.226,0,0,0-.143-.667,12.909,12.909,0,0,0-2.452-.222m2.163-24.211.432-1.332q-1.152,0-1.442.666a2.739,2.739,0,0,1,1.01.666m-1.3,46.423c.248.617-.045,1.383.865,1.111,1.112-.1-.391-1.278-.865-1.111m.432-37.325c.834-.161,1.2,1.666,0,1.555-1.076.049-1.032-1.727,0-1.555m16.83,100.089h2.019l-.432,3.776h-.866v-3.11Zm-17.7-47.668c.058.622-.222,1.564.433,1.332.9-.358.35-1.142-.433-1.332m0-27.09a10.218,10.218,0,0,0-.144,1.11c.929.5,1.611-1.234.144-1.11m.433,48.413a6.539,6.539,0,0,0-1.01.666c.1.739.432,1.111,1.01,1.111Zm-4.472,3.11v1.111h.433a1.868,1.868,0,0,0,.432-.444,1.158,1.158,0,0,0-.866-.666m0-3.776c-1.647,0-1.582,2.248.433,2,.443-1.235.867-1.869-.433-2m-6.49-4.22V90.48q.865-.447,1.587-.888H19.4v2a4.527,4.527,0,0,0-1.153.666c.371,1.419,3.126.13,3.029-.889-.384-.149-.769-.3-1.154-.444V89.592a9.267,9.267,0,0,0,2.6-1.111.881.881,0,0,0,.433-.222c-.707-.523-3.437-.377-4.616-.444l.865-1.777-2.163-.889.433,3.11Zm5.769,11.328a6.286,6.286,0,0,0-.432,1.333,4.438,4.438,0,0,1,.721.444c.481-.977.774-1.665-.289-1.777M23.376,85.05a3.917,3.917,0,0,0-.433,1.111.477.477,0,0,1,.433.222v3.109c1.384.339,3.115-2.359,4.039-3.109h3.317l.433-1.777c-1.1-.082-4.2,1.458-5.337,1.333a1.7,1.7,0,0,0-.865-.444q-1.153-.667-1.587-.444m-9.025,4.542V90.7c1.011.764,1.235-1.013,0-1.111m-7.212,0v1.332h2.884v1.111c-2.129.068-.729,2.286,1.154,2l.721-1.111a1.241,1.241,0,0,0,1.442.444l-.866-1.777q-.432.442-.865-.667c.483-.3.819-.52,1.01-.666a5.412,5.412,0,0,0,.144-1.11l-1.154-.889c-.572,0-.722.718-.865,1.333Zm3.173,2.443.432-1.555a15.312,15.312,0,0,1-.432,1.555m-.721-5.553c-.864-.027-1.115,2.127,0,1.777a4.753,4.753,0,0,0,.721-1.333,4.454,4.454,0,0,0-.721-.444m-1.3,9.329c-.192.146-.383.295-.577.444.1.59.289.889.577.889Zm-.608,18.722a34.574,34.574,0,0,0-1.422-8.115l.259-.751,2.039,5.215a16.244,16.244,0,0,1,2.055,1.091c-.371,1.267-.678,1.238-1.251,2.142Zm8.4-37.947h1.154c1.316.779.666,2.96,1.153,3.776h1.3c.024,1.194-.135,1.627.432,2.221a.564.564,0,0,0,0,.889.867.867,0,0,0-.432.222c-3.4-1.327-2.55-2.527-3.606-7.108" transform="translate(0 63.031) rotate(-90)" fill="#fff"/></svg>