<svg xmlns="http://www.w3.org/2000/svg" width="62.069" height="662.753" viewBox="0 0 62.069 662.753"><path d="M7.116,54.551,9.438,58.7H16.4v1.745a17.746,17.746,0,0,0-4.644,1.091c-.944,1.068-5.938.255-9.29,0V56.3ZM217.661,14.62l1.548,1.091c70.776-1.337,154.827.445,224.481,0v-.873a5.753,5.753,0,0,0,1.548.217c8.175,1.769,23.992.555,31.738,0,7.691.676,40.845,1.092,47.216,1.091,43.057.351,94.7-1.943,136.237-.435l2.323,5.672-4.646,1.31c-1.948,7.565,8.761,16.376-5.417,22.474-2.612-.2-26.733-1.617-29.416-1.527l-3.1,1.527c-11.953.185-19.669.4-28.641,0L589.99,43.64c-8.678.6-31.515-.181-40.252-.436-18.539-.279-45.445,1.195-62.7,0-20.634,1.005-54.551,2.99-76.631,0-20.4-1.1-51.133,3.4-73.536,0a11.9,11.9,0,0,1-4.646,1.527L328.353,43.2c-15.707-.634-55.361.94-71.214,1.527L250.173,43.2c-28.937.724-63.285,2.894-93.662,1.309-24.85.013-48.512,1.052-72.764.656-9.184-2.648-33.115-.291-43.346.436-1.5-1.615-6.713-2.662-3.873-4.583,4.572-8.291-4.784-17.188.777-25.967,7.581.041,17.172-1.621,20.125.656,49-.553,112.194,1.115,160.231-1.091M9.438,42.549v2.618c-8.644-.488-9.913-1.722,0-2.618M7.116,36.876l3.869,1.963a12.83,12.83,0,0,0-2.32,2.183l-1.548-.436Zm143.976,1.963c-1.357-4.47-11.195-.183-15.48,0ZM165.8,37.749h-2.32c-1.027.294-1.55.656-1.55,1.091h3.87Zm376.973,0a14.2,14.2,0,0,0-6.193.436Zm-95.211-1.527c-2.057.292-4.125.51-6.19.654Zm-139.333-.436a26.71,26.71,0,0,0-3.87-.656,1.26,1.26,0,0,1-.775,1.092c1.548-.143,3.1-.291,4.645-.436M165.8,33.822c-1.475.392-4.146-.117-3.87,1.307h3.87Zm35.608,1.307c0-.289-.255-.653-.775-1.091a7.311,7.311,0,0,0-3.1,1.091Zm-13.158-3.054c-3.1.73-4.38,1.528-3.873,2.4.521.145.776.292.776.436a10.81,10.81,0,0,0,3.1-2.837m173.392.438c-1.283.394-5.852-.163-5.42,1.309h5.42Zm-102.953,0a22.427,22.427,0,0,1-3.1.653Zm215.191-1.092c-4.209.235-9.031-.739-8.514,1.092h8.514Zm-460.571-12V30.112l-3.87,1.309c-2.69-2.327-2.494-8.782-2.322-11.347Zm191.2,7.419v2.619c-.452.3-9.95.724-9.29,1.963,3.763-.241,11.772-.335,13.158-2.618,2.789-1.417-3.78-1.471-3.869-1.965m14.707,3.71c-2.056-.144-3.35-.218-3.871-.218q-.762.22,0,1.091c1.548-.289,2.844-.579,3.871-.873m142.43-3.71c-12.92.057-4.271,2.632,0,4.583Zm22.447,3.274a3.012,3.012,0,0,0-3.1-2.182c-1.546,1.166-2.323,2.039-2.323,2.618Zm52.637,0a34.365,34.365,0,0,0-3.871-1.747,5.622,5.622,0,0,1-1.547-.218,5.967,5.967,0,0,0-.773,2.4ZM132.516,25.748c-2.577.73-3.871,1.6-3.871,2.618,1.665.247,4.125-1.979,3.871-2.618m299.565-1.091c-2.191.11-4.18-.324-4.646.436.234,1.228,4.339.589,4.646-.436M27.241,0c.706.481,2.505,1.8,3.87,1.963l-17.8.656c-2.492.767,3.606,2.471,3.1,3.054-3.162.6-3.558.3-6.967.654l1.547,12-3.869-.654a10.066,10.066,0,0,1,0-12C4.323,4.183-.955,1.076.15.656,5.641-.324,20.079.148,27.241,0" transform="translate(62.069) rotate(90)" fill="#413f46" opacity="0.067"/></svg>