<svg xmlns="http://www.w3.org/2000/svg" width="1872.544" height="1090.217" viewBox="0 0 1872.544 1090.217"><g transform="translate(-177.371 -1265.883)"><path d="M21.327-126.24l-66.57,13.017,3.122,102.84L29.461-1.321Z" transform="translate(222.615 1392.123)" fill="#fc3d5e"/><path d="M84.41,51.981-11.641,66.233,13.864-3.194l86.156-8.59Z" transform="matrix(-0.883, 0.469, -0.469, -0.883, 313.779, 1379.902)" fill="#fff2e6"/><path d="M21.327-126.24l-66.57,13.017,3.122,102.84L29.461-1.321Z" transform="translate(1970.729 1993.504)" fill="#bf2143"/><path d="M51.42,76.728-2.545,79.383,9.164-.754,57.737,1.939Z" transform="translate(2047.334 1913.683) rotate(177)" fill="#fff2e6"/><path d="M-85.111,0H29.09L8.594,148.017-94.47,138.562Z" transform="translate(397.388 2168.249)" fill="#bf2143"/><path d="M21.327-126.24l-66.57,8.716,3.122,68.857L29.461-42.6Z" transform="translate(378.625 2398.7)" fill="#fc3d5e"/></g></svg>