<svg xmlns="http://www.w3.org/2000/svg" width="560" height="22.626" viewBox="0 0 560 22.626">
  <path id="dash" d="M6.013,19.885,7.975,21.4h5.886v.636a32.453,32.453,0,0,0-3.924.4c-.8.389-5.017.093-7.849,0V20.521ZM183.915,5.33l1.308.4c59.8-.488,130.823.162,189.677,0V5.409a10.965,10.965,0,0,0,1.308.079c6.908.645,20.273.2,26.817,0,6.5.246,34.512.4,39.9.4,36.382.128,80.016-.708,115.115-.159L560,7.795l-3.926.478c-1.646,2.758,7.4,5.969-4.577,8.192-2.207-.071-22.589-.589-24.855-.557l-2.616.557c-10.1.068-16.62.147-24.2,0l-1.307-.557c-7.332.218-26.629-.066-34.012-.159-15.665-.1-38.4.436-52.979,0-17.435.366-46.094,1.09-64.75,0-17.237-.4-43.206,1.238-62.135,0a20.621,20.621,0,0,1-3.926.557l-3.271-.557c-13.272-.231-46.778.343-60.173.557l-5.886-.557c-24.45.264-53.473,1.055-79.141.477-21,0-40.991.384-61.482.239-7.76-.965-27.981-.106-36.626.159-1.271-.589-5.672-.97-3.272-1.67,3.863-3.022-4.042-6.266.657-9.466,6.406.015,14.509-.591,17,.239,41.406-.2,94.8.406,135.389-.4M7.975,15.51v.954c-7.3-.178-8.376-.628,0-.954M6.013,13.442l3.269.716a11.71,11.71,0,0,0-1.961.8l-1.308-.159Zm121.654.716c-1.146-1.629-9.459-.067-13.08,0Zm12.427-.4h-1.961c-.868.107-1.309.239-1.309.4h3.27Zm318.527,0a27.414,27.414,0,0,0-5.233.159Zm-80.45-.557c-1.738.107-3.486.186-5.231.239Zm-117.73-.159c-1.737-.16-2.831-.239-3.27-.239,0,.16-.216.292-.655.4q1.962-.078,3.925-.159m-120.347-.716c-1.247.143-3.5-.043-3.27.477h3.27Zm30.087.477c0-.106-.216-.238-.655-.4a12.127,12.127,0,0,0-2.615.4Zm-11.118-1.113c-2.616.266-3.7.557-3.272.875.44.053.656.107.656.159a10.569,10.569,0,0,0,2.616-1.034m146.509.16c-1.084.143-4.945-.059-4.579.477h4.579Zm-86.991,0c-.868.107-1.737.186-2.615.238Zm181.828-.4c-3.556.086-7.63-.269-7.194.4h7.194ZM11.245,7.079v3.9l-3.27.477c-2.273-.848-2.107-3.2-1.962-4.136ZM172.8,9.783v.955c-.382.108-8.407.264-7.849.716,3.18-.088,9.947-.122,11.118-.954,2.357-.517-3.194-.536-3.269-.716m12.426,1.352c-1.737-.052-2.831-.08-3.271-.08q-.644.08,0,.4c1.308-.106,2.4-.211,3.271-.318M305.571,9.783c-10.917.021-3.609.959,0,1.67Zm18.967,1.193a3.308,3.308,0,0,0-2.616-.8c-1.306.425-1.963.743-1.963.954Zm44.476,0c-1.737-.37-2.832-.583-3.271-.637a10.71,10.71,0,0,1-1.307-.08c-.43.372-.654.664-.654.875ZM111.97,9.386c-2.177.266-3.271.584-3.271.954,1.407.09,3.486-.721,3.271-.954m253.12-.4c-1.852.04-3.532-.118-3.926.159.2.448,3.666.215,3.926-.159M23.018,0a16.013,16.013,0,0,0,3.27.716L11.245.955c-2.106.28,3.047.9,2.616,1.113-2.671.22-3.006.109-5.886.239L9.282,6.681,6.013,6.443c-2.239-1.351-2.231-3.06,0-4.375C3.653,1.525-.807.392.126.239,4.766-.118,16.966.054,23.018,0" transform="translate(560 22.626) rotate(180)" fill="#bf2143"/>
</svg>
