<?xml version="1.0" encoding="utf-8"?>
<!-- Generator: Adobe Illustrator 27.9.0, SVG Export Plug-In . SVG Version: 6.00 Build 0)  -->
<svg version="1.1" id="Calque_1" xmlns="http://www.w3.org/2000/svg" xmlns:xlink="http://www.w3.org/1999/xlink" x="0px" y="0px"
	 viewBox="0 0 101.2 142" style="enable-background:new 0 0 101.2 142;" xml:space="preserve">
<style type="text/css">
	.st0{fill:#FC3D5E;}
	.st1{enable-background:new    ;}
	.st2{fill:#FFFFFF;}
</style>
<path class="st0" d="M87.8,20.1L7.9,11.5L13.3,130l79.3-8.6L87.8,20.1z"/>
<g class="st1">
	<path class="st2" d="M28.6,52c0.5-0.5,1.4-0.6,2.6-0.3c0.8,0.2,1.4,0.3,1.9,0.5c1.3,0.6,2.5,1,3.5,1.5c1,0.4,1.9,0.7,2.7,0.8
		c0.5,0.1,1.3,0.1,2.6,0.1c1.3-0.1,2.3,0,2.9,0.1c0.1,0,0.2,0,0.5,0.1c0.2,0,0.4,0.1,0.6,0.2c0.3,0.1,0.5,0.4,0.5,0.7
		c0,0.4,0,0.7,0.1,0.9l1,0.2c-0.1,0.2,0,0.6,0.2,1.3c-0.2,0.2-0.5,0.3-0.8,0.3c-0.4,0.1-0.5,0.3-0.4,0.5l1.8,0.8
		c0.4,0.4,0.8,1.3,1.3,2.6c0.3,0.7,0.6,1.6,0.9,2.8c-0.6-0.2-1.3-0.3-2.2-0.5c-0.9-0.1-1.5-0.3-1.9-0.4l-0.3,1.3
		c0.8,0.2,1.5,0.3,2.2,0.5c0.1,1.2,0.1,2,0.1,2.6c0,0.5-0.1,1.4-0.2,2.4l2.2-1.1l0.2-0.9c-0.2-0.1-0.5-0.2-0.8-0.4
		c-0.2-0.1-0.3-0.3-0.4-0.5c-0.2-0.2-0.2-0.5-0.1-0.8c0.1-0.5,0.1-0.9,0-1.1c0.8,0.2,1.5,0.3,2.2,0.5c0.2,1.1,0.4,2,0.4,2.7
		c0,0.7,0,1.5,0,2.4c0.3,0.1,0.6,0.1,0.9,0.1c0.1,0,0.2-0.2,0.1-0.6c0.8,1.2,1.3,2,1.5,2.6c0.2,0.5,0.3,1.3,0.4,2.3
		c0.8,0.2,1.4,0.5,1.8,0.9c-0.4,0.5-0.8,0.9-1,1.3c-0.3,0.4-0.6,1-1,1.6l-1.4-0.3l0.1,1.4c-0.4,0.3-0.9,0.7-1.6,1.1
		c-0.3-0.1-0.5-0.2-0.7-0.2c-0.4-0.1-0.7-0.1-0.8-0.1c0.1,0.4,0.2,0.7,0.3,1c0.1,0.4,0,0.8-0.2,1c-0.5-0.1-0.9-0.2-1.5-0.3
		c-0.1,0.1-0.2,0.4-0.4,0.9c-0.2,0.5-0.3,0.8-0.4,0.8c-0.3,0.3-1,0.5-2.1,0.7c-0.1,0.1-0.1,0.3,0.1,0.4c0.2,0.2,0.3,0.5,0.1,0.8
		l-1,0.5c-0.4,0.5-0.7,1.3-1,2.2c-0.3,0.9-0.6,1.6-1,2.1c-0.5,0.1-1,0.2-1.5,0.2c-0.2,0.2-0.3,0.9-0.4,1.9c-0.2,0.2-0.5,0.2-0.8,0.1
		c-0.1,0-0.2,0-0.5-0.1C40,94,39.8,94,39.7,94c-0.1,0.1-0.4,0.3-1.1,0.9c-0.4,0.4-0.9,0.6-1.4,0.6c-0.5,0-1.3-0.1-2.4-0.3
		c-0.1,0-0.8-0.2-2.1-0.7c-1.3-0.4-2.3-0.7-3.2-0.8l-2.9,0.4l-0.2,0.9c-0.5,0-1,0-1.2-0.1c-0.6-0.1-1.4-0.4-2.4-0.8
		c-1-0.4-1.8-0.7-2.3-0.8l-1-2.1c0-0.7,0.3-1.2,0.9-1.4c0.6-0.3,0.9-0.5,0.9-0.6L21,86.3c2.2-0.8,3.6-1.4,4.3-1.8
		c0.9-0.5,1.5-1,1.8-1.4c0.1-0.2,0.2-0.6,0.2-1.2c0.2-0.2,0.6-0.4,1.3-0.6c0.7-0.2,1.1-0.3,1.3-0.4c0.4-0.3,0.8-0.8,1.4-1.6
		c0.5-0.8,0.9-1.2,1.2-1.4c0.2-0.2,0.6-0.2,1.2-0.2c0.5,0,1,0,1.3-0.1c0.3-0.1,0.8-0.7,1.4-2c0.7-1.3,1-2,1-2.4
		c0-0.4-0.2-0.9-0.7-1.4c-0.5-0.5-0.7-0.8-0.8-0.9c-0.2-0.5-0.5-1.3-0.7-2.3c-0.2-1-0.5-1.8-0.8-2.3c-0.7-0.4-1.3-0.9-2.1-1.4
		c0-0.6,0-1.3-0.1-2c-0.7-0.6-1.4-1.2-2.1-1.9c-0.1-0.3-0.3-0.9-0.4-1.7c-0.1-0.8-0.4-1.5-0.7-1.9c-0.3-0.4-0.6-0.7-0.9-0.9
		c-0.9-0.7-1.5-1.1-1.6-1.3C27.4,53.6,28.1,52.4,28.6,52z M40.5,74c0.4-0.6,0.7-0.9,0.8-1c0.3-0.1,0.6-0.3,0.9-0.5
		c0.1,0.6,0.1,1.1,0.2,1.6l-0.2,0.8c0.2,0,0.6-0.1,1.1-0.3c0.4-0.1,0.8-0.1,1.3,0l0.2-1.1c-0.2,0-0.5,0-1,0.1
		c-0.4,0.1-0.7,0.1-0.9,0.1l-0.2-1.1l2.4-0.3c0.1,0,0.4-0.4,0.6-1c0-0.2,0.1-0.4,0.3-0.8c0.3,0.2,0.5,0.1,0.6-0.3
		c0-0.1,0.1-0.4,0.1-0.7c0-0.4-0.1-0.7-0.1-0.8c-0.2-1.1-0.6-1.9-1.2-2.2l-3.2-0.7l-0.9,1.8l3.3,0.2l-0.3,3.6
		c-0.3-0.1-1.3-0.3-2.8-0.6l0.4-1.9c-0.2-0.1-0.6-0.2-1.4-0.3l0.1,2c-1.1,0-1.7,0.2-1.7,0.4c0,0.1,0.6,0.5,1.9,1.2
		c-0.2,0.4-0.5,0.9-0.7,1.3c-0.2,0.2-0.4,0.2-0.6,0c-0.1-0.2-0.2-0.3-0.3-0.5c-0.1,0-0.4-0.1-0.9-0.3l-0.2,0.9
		C39.1,73.7,39.8,73.8,40.5,74z M40.7,77.8c-0.6,0.2-0.9,0.4-1.1,0.7c0.1,0.1,0.2,0.2,0.4,0.3L40.7,77.8z M41.6,84.9
		c-0.5,0-0.9,0.2-1.3,0.7c0.2,0.2,0.3,0.3,0.5,0.4L41.6,84.9z M44.2,78.8c1.1,0.2,2.1,0.3,2.9,0.1c0.8-0.2,1.9-0.6,3.2-1.3
		c-0.1-0.3-0.2-0.5-0.3-0.7c-0.1-0.4,0-0.7,0.2-0.9c0.4-0.2,0.7-0.3,1-0.2c0.3,0.1,0.8,0.3,1.3,0.7c0-0.2,0.2-0.7,0.4-1.5
		c0-0.3-0.2-0.4-0.4-0.4l0-2.4c-0.2,0.1-0.4,0.4-0.6,0.8c0,0.2-0.1,0.7-0.3,1.4c-0.6-0.1-1.2-0.3-1.9-0.4c-0.1-0.3-0.1-0.6-0.2-1
		c-0.1-0.4-0.3-0.6-0.5-0.7l-0.3,1.5c-0.3,0.1-0.7,0.1-1.3,0c-0.2,0-0.5-0.1-1-0.1l-0.1,0.6l0.9,0.2c0.4,0.2,0.8,0.3,1.1,0.4
		c0.4,0,0.8,0,1.2,0.1c-0.2,0.2-0.5,0.7-0.9,1.3c-0.4,0.7-0.8,1.2-1.1,1.5c0.3,0,0.4,0.2,0.3,0.5c-0.1,0.2-0.2,0.4-0.1,0.7
		c-0.4-0.2-0.8-0.5-1.3-0.8l0.3-1.4c-0.8-0.6-1.4-0.6-1.8,0c0.1,0.2,0.2,0.3,0.3,0.5l-0.2,1.1l-3.8-0.5
		C42.4,78.4,43.4,78.7,44.2,78.8z M42.2,75.3c-0.4,0.4-0.7,0.6-0.8,0.8c0,0.1,0,0.3,0,0.4L42.2,75.3z M43.6,68.8
		c-0.3-0.1-0.5,0-0.6,0.2c0,0.4-0.1,0.7-0.2,0.8L43.6,68.8z M45.1,81.8l0.7-1c-0.2,0-0.6-0.1-1.2-0.1c-0.6,0-1,0-1.2,0l-0.1,0.6
		C43.9,81.5,44.5,81.7,45.1,81.8z M52.7,56.9c0.7,0.1,1.3,0.3,1.9,0.4c2.1,0.4,4.3,0.7,6.8,0.8c0.3,0.2,0.7,0.4,1.2,0.5
		c0.5,0.1,1.7,0.5,3.7,0.9c1.3-0.2,2.7-0.4,4-0.6c0.5,1,0.9,1.8,1.2,2.4c0.2,0.6,0.5,1.4,0.7,2.5l1.4,0.3c-0.2,0.9-0.4,1.8-0.6,2.6
		c0.7,0,1.3,0,1.9,0c0.1,1,0.1,1.7,0.2,2.1c0.1,0,0.3-0.1,0.3-0.1c0.3,0.1,0.8,0.5,1.3,1.2c0.1,0.2,0.1,0.6,0,1
		c-0.2,0.7-0.2,1.2-0.1,1.5c0.3,0.1,0.9,0.2,1.9,0.4c0.1,0.1,0,0.5-0.3,1.2c-0.2,0.7-0.3,1.1-0.2,1.2c0.1,0.1,0.4,0.1,1.1,0.2
		c0.7,0,1.1,0.1,1.2,0.3c0.2,0.2,0.2,0.5-0.1,1c-0.1,0.2-0.3,0.4-0.7,0.8c0.1,0.1,0.4,0.2,0.9,0.3c0.5,0.1,0.8,0.3,0.9,0.4L81,79.1
		c-0.2-0.2-0.4-0.2-0.5,0.1c0,0.1,0,0.2-0.1,0.5l1.3,0.7l-0.5,2.2c0.2,0.3,0.4,0.4,0.4,0.5c0.2,0.3,0.3,0.5,0.4,0.7
		c-0.2,0.1-0.6,0.1-1,0c-0.4-0.1-0.7,0-0.9,0.1c-0.2,0.1-0.5,0.5-0.9,1.2c-0.4,0.7-0.6,1.1-0.7,1.2c-1.3,1-2.6,2-4,3
		c-0.1,0.1-0.4,0.3-1,0.5c-0.6,0.2-0.9,0.4-1,0.5c-0.2,0.2-0.5,0.6-0.8,1.4c-0.3,0.8-0.6,1.2-0.8,1.4l-1.5,0.1
		c-0.2,0.2-1.1,1.2-2.7,3.2c-0.6,0.8-1.2,1.3-1.7,1.7c-0.1,0-0.7,0.2-1.7,0.4c-0.3,0.1-0.6,0.2-0.9,0.3c-0.1,0.1-0.3,0.4-0.8,1.1
		c-0.4,0.7-0.8,1-1.1,1.1c-0.3,0-0.7,0-1.2-0.2c-0.5-0.1-1.1-0.3-1.6-0.4c-0.5-0.2-1-0.3-1.3-0.3l-1-0.2L51.2,99l-0.3-1.1
		c-0.3-0.1-0.5,0.1-0.8,0.3c-0.3,0.3-0.5,0.4-0.8,0.3c-0.8-0.4-1.7-1-2.7-1.5c-1-0.6-1.9-1-2.6-1.1c0.1-0.4,0.2-1,0.5-1.7
		c0.1-0.5,0.1-0.8,0.1-1l2.6-1.4c0.3-0.2,0.6-0.7,1-1.4c0.4-0.7,0.8-1.1,1.1-1.1l1,0.2c0.1-0.2,0.2-0.6,0.2-1.2c0-0.6,0.1-1,0.3-1.1
		c0.2-0.2,0.8-0.6,1.8-1c1-0.4,1.7-0.8,1.9-1.2c0.2-0.2,0.3-0.9,0.4-1.9c0.5-0.5,1.5-1.1,3-1.8s2.4-1.2,2.6-1.5
		c0.1,0,0.2-0.4,0.3-1.1c0.1-0.5,0.2-1,0.2-1.5c0-0.1,0.1-0.4,0.1-0.7c0.1,0,0.3-0.1,0.6-0.3c0.2-0.1,0.4-0.3,0.6-0.7
		c-0.4-0.2-0.6-0.3-0.8-0.4c-0.5-0.1-1.1-0.2-1.9-0.2c0-0.7,0-1.4,0-2.2c0-0.8-0.1-1.4-0.2-1.7c-0.5-0.1-0.9-0.2-1.4-0.3l-1.5-2.3
		c-0.1-0.2-0.1-0.7,0.1-1.3c0.1-0.5,0.1-0.8-0.1-1.1l-0.9-0.2c-0.1-0.2-0.2-0.5-0.4-1.1c0-0.1-0.1-0.4-0.2-0.9
		c-0.1-0.2-0.3-0.4-0.7-0.6c-0.3-0.1-0.7-0.3-1-0.5l0.2-1.2c-0.1-0.3-0.5-0.7-1.2-1.2c-0.6-0.5-1-0.9-1.1-1.2
		c-0.1-0.4-0.1-0.9,0.1-1.7c0.1-0.5,0.1-1,0.1-1.3C51.7,56.5,52.1,56.7,52.7,56.9z M45.5,85c-0.4,0-0.7,0.3-0.9,0.6
		c0.2,0.2,0.5,0.3,0.7,0.5L45.5,85z M48.1,83c0.3-0.1,0.6,0,1,0.1c0-0.1,0-0.5,0-1.2s0-1,0.1-1.2c0.2-0.2,0.5-0.3,1-0.4
		c0.5,0,0.9-0.2,1.2-0.6c0.4-0.4,0.5-0.6,0.6-0.7c-0.2,0.1-0.3,0.2-0.5,0.2l0.3-1.4l-0.9-0.2c-0.1,0.5-0.2,0.9-0.3,1.4
		c-0.1,0.1-0.4,0.1-0.8,0c-0.4-0.1-0.8,0.2-1.1,1c-0.3,0.7-0.8,1.7-1.4,3C47.4,83.1,47.6,83,48.1,83z M57.7,63.6
		c-0.9,0-1.4,0.1-1.4,0.5c-0.1,0.3,0.3,0.4,1.2,0.6L57.7,63.6z M57.6,86.4c0.5-0.2,1.2-0.3,1.9-0.4c0.8-0.1,1.3-0.1,1.6,0
		c0.2,0.1,0.3,0.4,0.2,0.9c0,0.2-0.2,0.5-0.4,1c-0.2,0.5-0.4,0.8-0.4,1c0.3,0,0.7,0,0.9-0.1c0.1,0,0.4,0.2,0.9,0.5
		c0.2,0.2,0.3,0.3,0.5,0.4c0.2,0,0.6,0.2,1.2,0.3l1.3-1.7L65,88.4c0-0.2,0.1-0.4,0-0.7c-0.1-0.1-0.2-0.2-0.3-0.4l-1.2,1.2
		c-0.4-0.2-0.9-0.5-1.4-0.7l0.3-1.5c0.8,0.2,1.6,0.3,2.3,0.5c-0.2-0.2-0.2-0.6-0.1-0.9s0.1-0.7,0-1c-0.2-0.3-0.6-0.7-1.1-1.1
		c-0.5-0.1-1.1-0.3-2-0.5c-1.1-0.2-2-0.2-2.8,0l0.6,2c-0.3,0-0.6,0-1,0c-0.4-0.1-0.7-0.1-0.9,0C57.5,85.5,57.5,85.8,57.6,86.4z
		 M61.1,84.3c0-0.2,0.3-0.2,0.9,0c0.2,0,0.3,0.4,0.3,1.2c0.1,0.1,0.2,0.1,0.3,0.2c-0.7,0.1-1.3,0-1.8-0.1
		C60.8,85.5,60.9,85,61.1,84.3z M62.3,72.7c0.1,0.4,0.5,0.5,1.1,0.3l-0.7,1.4c-0.3,0-0.5,0.1-0.6,0.3c0,0.1,0,0.2-0.1,0.4l2.5-0.3
		l-0.2-1.6c0.8,0.1,1.5,0.2,2.2,0.2s1.3,0.1,2,0.3l0.2-0.9l-6.5-0.9C62.2,72.3,62.2,72.6,62.3,72.7z M63.4,77.4
		c-0.1,0.7,0,1.5,0.5,2.6c0.2,0.5,0.6,1.2,1,2.1c-0.1-0.6-0.1-1.2,0-1.9c0-0.2,0.1-0.5,0.1-1l-0.4-2.8
		C63.9,76.5,63.6,76.8,63.4,77.4z M65.3,67.9c0.3,0,0.9,0,2,0.1C66.7,68,66,68,65.3,67.9c-0.1,0.2-0.2,0.2-0.4,0.2
		C65.1,68.1,65.3,68,65.3,67.9z M65.6,75.8c0,0.9,0,1.4,0.3,1.6c0.2,0.3,0.5,0.5,0.9,0.7c0.1,0,0.2,0,0.2-0.2c0.1-0.3,0-0.9-0.3-1.7
		c-0.3-0.8-0.5-1.3-0.7-1.6C65.9,75.1,65.8,75.5,65.6,75.8z M67.9,65.4c-0.5-0.1-0.8,0.1-0.9,0.6c-0.1,0.5,0.1,0.7,0.6,0.9
		L67.9,65.4z M68.3,58.6c-0.1,0.2-0.1,0.4-0.1,0.6c-0.4-0.2-0.6-0.5-0.7-0.8c0-0.2,0.1-0.3,0.5-0.4C68.4,58.1,68.5,58.2,68.3,58.6z
		 M68,76.3c0.8,0,1.7-0.1,2.6-0.1c0.9,0,1.4-0.2,1.5-0.6c0.1-0.3-0.5-0.7-1.8-1.2c0-0.7,0-1.2-0.1-1.4c-0.4,0.6-0.7,0.9-0.8,1
		c-0.5,0.3-1,0.6-1.5,0.9L68,76.3z"/>
</g>
</svg>
