<?xml version="1.0" encoding="utf-8"?>
<!-- Generator: Adobe Illustrator 27.9.0, SVG Export Plug-In . SVG Version: 6.00 Build 0)  -->
<svg version="1.1" id="Calque_1" xmlns="http://www.w3.org/2000/svg" xmlns:xlink="http://www.w3.org/1999/xlink" x="0px" y="0px"
	 viewBox="0 0 101.2 142" style="enable-background:new 0 0 101.2 142;" xml:space="preserve">
<style type="text/css">
	.st0{fill:#FC3D5E;}
	.st1{enable-background:new    ;}
	.st2{fill:#FFFFFF;}
</style>
<path class="st0" d="M13.3,121.9l79.9,8.6L87.9,12L8.5,20.6L13.3,121.9z"/>
<g class="st1">
	<path class="st2" d="M48.5,85.1c-0.7-0.1-1.3-0.3-1.9-0.4c-2.1-0.4-4.3-0.7-6.8-0.8c-0.3-0.2-0.7-0.4-1.2-0.5
		c-0.5-0.1-1.7-0.5-3.7-0.9c-1.3,0.2-2.7,0.4-4,0.6c-0.5-1-0.9-1.8-1.2-2.4c-0.2-0.6-0.5-1.4-0.7-2.5l-1.4-0.3
		c0.2-0.9,0.4-1.8,0.6-2.6c-0.7,0-1.3,0-1.9,0c-0.1-1-0.1-1.7-0.2-2.1c-0.1,0-0.3,0.1-0.3,0.1c-0.3-0.1-0.8-0.5-1.3-1.2
		c-0.1-0.2-0.1-0.6,0-1c0.2-0.7,0.2-1.2,0.1-1.5c-0.3-0.1-0.9-0.2-1.9-0.4c-0.1-0.1,0-0.5,0.3-1.2c0.3-0.7,0.3-1.1,0.2-1.2
		c-0.1-0.1-0.4-0.1-1.1-0.2c-0.7,0-1.1-0.1-1.2-0.3c-0.2-0.2-0.2-0.5,0.1-1c0.1-0.2,0.3-0.4,0.7-0.8c-0.1-0.1-0.4-0.2-0.9-0.3
		c-0.5-0.1-0.8-0.3-0.9-0.4l0.2-0.8c0.2,0.2,0.4,0.2,0.5-0.1c0-0.1,0-0.2,0.1-0.5l-1.3-0.7l0.5-2.2c-0.2-0.3-0.4-0.4-0.4-0.5
		c-0.2-0.3-0.3-0.5-0.4-0.7c0.2-0.1,0.6-0.1,1,0c0.4,0.1,0.7,0,0.9-0.1c0.2-0.1,0.5-0.5,0.9-1.2c0.4-0.7,0.6-1.1,0.7-1.2
		c1.3-1,2.6-2,4-3c0.1-0.1,0.4-0.3,1-0.5c0.6-0.2,0.9-0.4,1-0.5c0.2-0.2,0.5-0.6,0.8-1.4c0.3-0.8,0.6-1.2,0.8-1.4l1.5-0.1
		c0.2-0.2,1.1-1.2,2.7-3.2c0.6-0.8,1.2-1.3,1.7-1.7c0.1,0,0.7-0.2,1.7-0.4c0.3-0.1,0.6-0.2,0.9-0.3c0.1-0.1,0.3-0.4,0.8-1.1
		c0.4-0.7,0.8-1,1.1-1.1c0.3,0,0.7,0,1.2,0.2c0.5,0.1,1.1,0.3,1.6,0.4c0.5,0.2,1,0.3,1.3,0.3l1,0.2L50,43l0.3,1.1
		c0.3,0.1,0.5-0.1,0.8-0.3c0.3-0.3,0.5-0.4,0.8-0.3c0.8,0.4,1.7,1,2.7,1.5c1,0.6,1.9,1,2.6,1.1c-0.1,0.4-0.2,1-0.5,1.7
		c-0.1,0.5-0.1,0.8-0.1,1l-2.6,1.4c-0.3,0.2-0.6,0.7-1,1.4c-0.4,0.7-0.8,1.1-1.1,1.1l-1-0.2c-0.1,0.2-0.2,0.6-0.2,1.2
		c0,0.6-0.1,1-0.3,1.1c-0.2,0.2-0.8,0.6-1.8,1c-1,0.4-1.7,0.8-1.9,1.2c-0.2,0.2-0.3,0.9-0.4,1.9c-0.5,0.5-1.5,1.1-3,1.8
		c-1.5,0.7-2.4,1.1-2.6,1.4c-0.1,0-0.2,0.4-0.3,1.1c-0.1,0.5-0.2,1-0.2,1.5c0,0.1-0.1,0.4-0.1,0.7c-0.1,0.1-0.3,0.1-0.6,0.3
		c-0.2,0.1-0.4,0.3-0.6,0.7c0.4,0.2,0.6,0.3,0.8,0.4c0.5,0.1,1.1,0.2,1.9,0.2c0,0.7,0,1.4,0,2.2c0,0.8,0.1,1.4,0.2,1.7
		c0.5,0.1,0.9,0.2,1.4,0.3l1.5,2.3c0.1,0.2,0.1,0.7-0.1,1.3c-0.1,0.5-0.1,0.8,0.1,1.1l0.9,0.2c0.1,0.2,0.2,0.5,0.4,1.1
		c0,0.1,0.1,0.4,0.2,0.9c0.1,0.2,0.3,0.4,0.7,0.6c0.3,0.1,0.7,0.3,1,0.5L47.5,80c0.1,0.3,0.5,0.7,1.2,1.2c0.6,0.5,1,0.9,1.1,1.2
		c0.1,0.4,0.1,0.9-0.1,1.7c-0.1,0.5-0.1,1-0.1,1.3C49.4,85.5,49.1,85.3,48.5,85.1z M33.2,65.7c-0.8,0-1.7,0.1-2.6,0.1
		c-0.9,0-1.4,0.2-1.5,0.6c-0.1,0.3,0.5,0.7,1.8,1.2c0,0.7,0,1.2,0.1,1.4c0.4-0.6,0.7-0.9,0.8-1c0.5-0.3,1-0.6,1.5-0.9L33.2,65.7z
		 M38.9,69.3c-0.1-0.4-0.5-0.5-1.1-0.3l0.7-1.4c0.3,0,0.5-0.1,0.6-0.3c0-0.1,0-0.2,0.1-0.4l-2.5,0.3l0.2,1.6
		c-0.8-0.1-1.5-0.2-2.2-0.2c-0.7,0-1.3-0.1-2-0.3l-0.2,0.9l6.5,0.9C38.9,69.6,38.9,69.4,38.9,69.3z M32.8,83.4
		c0.1-0.2,0.1-0.4,0.1-0.6c0.4,0.2,0.6,0.5,0.7,0.8c0,0.2-0.1,0.3-0.5,0.4C32.8,83.9,32.7,83.7,32.8,83.4z M33.2,76.6
		c0.5,0.1,0.8-0.1,0.9-0.6c0.1-0.5-0.1-0.7-0.6-0.9L33.2,76.6z M35.8,74.1c-0.3,0-0.9,0-2-0.1C34.5,74,35.2,74,35.8,74.1
		c0.1-0.2,0.2-0.2,0.4-0.2C36,73.9,35.9,74,35.8,74.1z M35.6,66.2c0-0.9,0-1.4-0.3-1.6c-0.2-0.3-0.5-0.5-0.9-0.7
		c-0.1,0-0.2,0-0.2,0.2c-0.1,0.3,0,0.9,0.3,1.7c0.3,0.8,0.5,1.3,0.7,1.6C35.3,66.9,35.4,66.5,35.6,66.2z M43.5,55.6
		c-0.5,0.2-1.2,0.3-1.9,0.4c-0.8,0.1-1.3,0.1-1.6,0c-0.2-0.1-0.3-0.4-0.2-0.9c0-0.2,0.2-0.5,0.4-1c0.2-0.5,0.4-0.8,0.4-1
		c-0.3,0-0.7,0-0.9,0.1c-0.1,0-0.4-0.2-0.9-0.5c-0.2-0.2-0.3-0.3-0.5-0.4c-0.2,0-0.6-0.2-1.2-0.3l-1.3,1.7l0.4,0.1
		c0,0.2-0.1,0.4,0,0.7c0.1,0.1,0.2,0.2,0.3,0.4l1.2-1.2c0.4,0.2,0.9,0.5,1.4,0.7l-0.3,1.5c-0.8-0.2-1.6-0.3-2.3-0.5
		c0.2,0.2,0.2,0.6,0.1,0.9c-0.1,0.4-0.1,0.7,0,1c0.2,0.3,0.6,0.7,1.1,1.1c0.5,0.1,1.1,0.3,2,0.5c1.1,0.2,2,0.2,2.8,0l-0.6-2
		c0.3,0,0.6,0,1,0c0.4,0.1,0.7,0.1,0.9,0C43.7,56.5,43.6,56.1,43.5,55.6z M37.7,64.6c0.1-0.7,0-1.5-0.5-2.6c-0.2-0.5-0.6-1.2-1-2.1
		c0.1,0.6,0.1,1.2,0,1.9c0,0.2-0.1,0.5-0.1,1l0.4,2.8C37.2,65.5,37.6,65.2,37.7,64.6z M40.1,57.7c0,0.2-0.3,0.2-0.9,0
		c-0.2,0-0.3-0.4-0.3-1.2c-0.1-0.1-0.2-0.1-0.3-0.2c0.7-0.1,1.3,0,1.8,0.1C40.4,56.5,40.3,56.9,40.1,57.7z M43.5,78.4
		c0.9,0,1.4-0.1,1.4-0.5c0.1-0.3-0.3-0.4-1.2-0.6L43.5,78.4z M72.6,90c-0.5,0.5-1.4,0.6-2.6,0.3c-0.8-0.2-1.4-0.3-1.9-0.5
		c-1.3-0.6-2.5-1-3.5-1.5c-1-0.4-2-0.7-2.7-0.8c-0.5-0.1-1.3-0.1-2.6-0.1c-1.3,0.1-2.3,0-2.9-0.1c-0.1,0-0.2,0-0.5-0.1
		c-0.2,0-0.4-0.1-0.6-0.2c-0.3-0.1-0.5-0.4-0.5-0.7c0-0.4,0-0.7-0.1-0.9l-1-0.2c0.1-0.2,0-0.6-0.2-1.3c0.2-0.2,0.5-0.3,0.8-0.3
		c0.4-0.1,0.5-0.3,0.4-0.5l-1.8-0.8c-0.4-0.4-0.8-1.3-1.3-2.6c-0.3-0.7-0.6-1.6-0.9-2.8c0.6,0.2,1.3,0.3,2.2,0.5
		c0.9,0.1,1.5,0.3,1.9,0.4l0.3-1.3c-0.8-0.2-1.5-0.3-2.2-0.5c-0.1-1.2-0.1-2-0.1-2.6c0-0.5,0.1-1.4,0.2-2.4l-2.2,1.1L50.4,73
		c0.2,0.1,0.5,0.2,0.8,0.4c0.2,0.1,0.3,0.3,0.4,0.5c0.2,0.2,0.2,0.5,0.1,0.8c-0.1,0.5-0.1,0.9,0,1.1c-0.8-0.2-1.5-0.3-2.2-0.5
		c-0.2-1.1-0.4-2-0.4-2.7c0-0.7,0-1.5,0-2.4c-0.3-0.1-0.6-0.1-0.9-0.1c-0.1,0-0.2,0.2-0.1,0.6c-0.8-1.2-1.3-2-1.4-2.6
		c-0.2-0.5-0.3-1.3-0.4-2.3c-0.8-0.2-1.4-0.5-1.8-0.9c0.4-0.5,0.8-0.9,1-1.3c0.3-0.4,0.6-1,1-1.6l1.4,0.3L47.7,61
		c0.4-0.3,0.9-0.7,1.6-1.1c0.3,0.1,0.5,0.2,0.7,0.2c0.4,0.1,0.7,0.1,0.8,0.1c-0.1-0.4-0.2-0.7-0.3-1c-0.1-0.4,0-0.8,0.2-1
		c0.5,0.1,0.9,0.2,1.5,0.3c0.1-0.1,0.2-0.4,0.4-0.9c0.2-0.5,0.3-0.8,0.4-0.8c0.3-0.3,1-0.5,2.1-0.7c0.1-0.1,0.1-0.3-0.1-0.4
		c-0.2-0.3-0.3-0.5-0.1-0.8l1-0.5c0.4-0.5,0.7-1.3,1-2.2c0.3-0.9,0.6-1.6,1-2.1c0.5-0.1,1-0.2,1.5-0.2c0.2-0.2,0.3-0.9,0.4-1.9
		c0.2-0.2,0.5-0.2,0.8-0.1c0.1,0,0.2,0,0.5,0.1c0.3,0.1,0.5,0.1,0.6,0c0.1-0.1,0.4-0.3,1.1-0.9c0.4-0.4,0.9-0.6,1.4-0.6
		c0.5,0,1.3,0.1,2.4,0.3c0.1,0,0.8,0.2,2.1,0.7c1.3,0.4,2.3,0.7,3.2,0.8l2.9-0.4l0.2-0.9c0.5,0,1,0,1.2,0.1c0.6,0.1,1.4,0.4,2.4,0.8
		c1,0.4,1.8,0.7,2.3,0.8l1,2.1c0,0.7-0.3,1.2-0.9,1.4c-0.6,0.3-0.9,0.5-1,0.6l0.4,2.9c-2.2,0.8-3.6,1.4-4.3,1.8
		c-0.9,0.5-1.5,1-1.8,1.4c-0.1,0.2-0.2,0.6-0.2,1.2c-0.2,0.2-0.6,0.4-1.3,0.6c-0.7,0.2-1.1,0.3-1.3,0.4c-0.4,0.3-0.8,0.8-1.4,1.6
		c-0.5,0.8-0.9,1.2-1.2,1.4c-0.2,0.2-0.6,0.2-1.2,0.2c-0.5,0-1,0-1.3,0.1c-0.3,0.1-0.8,0.7-1.4,2c-0.7,1.3-1,2-1,2.4
		c0,0.4,0.2,0.9,0.7,1.4c0.5,0.5,0.7,0.8,0.8,0.9c0.2,0.5,0.5,1.3,0.7,2.3c0.2,1,0.5,1.8,0.8,2.3c0.7,0.4,1.3,0.9,2.1,1.4
		c0,0.6,0,1.3,0.1,2c0.7,0.6,1.4,1.2,2.1,1.9c0.1,0.3,0.3,0.9,0.4,1.7c0.1,0.8,0.4,1.5,0.7,1.9c0.3,0.4,0.6,0.7,0.9,0.9
		c0.9,0.7,1.5,1.1,1.6,1.3C73.8,88.4,73.1,89.6,72.6,90z M56.9,63.1c-1.1-0.2-2.1-0.3-2.9-0.1c-0.8,0.2-1.9,0.6-3.2,1.3
		c0.1,0.3,0.2,0.5,0.3,0.7c0.1,0.4,0,0.7-0.2,0.9c-0.4,0.2-0.7,0.3-1,0.2c-0.3-0.1-0.8-0.3-1.3-0.7c0,0.2-0.2,0.7-0.4,1.5
		c0,0.3,0.2,0.4,0.4,0.4l0,2.4c0.2-0.1,0.4-0.4,0.6-0.8c0-0.2,0.1-0.7,0.3-1.4c0.6,0.1,1.2,0.3,1.9,0.4c0.1,0.3,0.1,0.6,0.2,1
		c0.1,0.4,0.3,0.6,0.5,0.7l0.3-1.5c0.3-0.1,0.7-0.1,1.3,0c0.2,0,0.5,0.1,1,0.1l0.1-0.6L54,67.5c-0.4-0.2-0.8-0.3-1.1-0.4
		c-0.4,0-0.8,0-1.2-0.1c0.2-0.2,0.5-0.7,0.9-1.3c0.4-0.7,0.8-1.2,1.1-1.5c-0.3,0-0.4-0.2-0.3-0.5c0.1-0.2,0.2-0.4,0.1-0.7
		c0.4,0.2,0.8,0.5,1.3,0.8l-0.3,1.4c0.8,0.6,1.4,0.6,1.8,0c-0.1-0.2-0.2-0.3-0.3-0.5l0.2-1.1l3.8,0.5C58.8,63.6,57.7,63.3,56.9,63.1
		z M53,59c-0.3,0.1-0.6,0-1-0.1c0,0.1,0,0.5,0,1.2c0,0.7,0,1-0.1,1.2c-0.2,0.2-0.5,0.3-1,0.4c-0.5,0-0.9,0.2-1.2,0.6
		c-0.4,0.4-0.5,0.6-0.6,0.7c0.2-0.1,0.3-0.2,0.5-0.2l-0.3,1.4l0.9,0.2c0.1-0.5,0.2-0.9,0.3-1.4c0.1-0.1,0.4-0.1,0.8,0
		c0.4,0.1,0.8-0.2,1.1-1c0.3-0.7,0.8-1.7,1.4-3C53.8,58.9,53.5,58.9,53,59z M60.6,68c-0.4,0.6-0.7,0.9-0.8,1
		c-0.3,0.1-0.6,0.3-0.9,0.5c-0.1-0.6-0.1-1.1-0.2-1.6l0.2-0.8c-0.2,0-0.6,0.1-1.1,0.3c-0.4,0.1-0.8,0.1-1.3,0l-0.2,1.1
		c0.2,0,0.5,0,1-0.1c0.4-0.1,0.7-0.1,0.9-0.1l0.2,1.1l-2.4,0.3c-0.1,0-0.4,0.4-0.6,1c0,0.2-0.1,0.4-0.3,0.8
		c-0.3-0.2-0.5-0.1-0.6,0.3c0,0.1-0.1,0.4-0.1,0.7c0,0.4,0.1,0.7,0.1,0.8c0.2,1.1,0.6,1.9,1.2,2.2l3.2,0.7l0.9-1.8l-3.3-0.2l0.3-3.6
		c0.3,0.1,1.3,0.3,2.8,0.6l-0.4,1.9c0.2,0.1,0.6,0.2,1.4,0.3l-0.1-2c1.1,0,1.7-0.2,1.7-0.4c0-0.1-0.6-0.5-1.9-1.2
		c0.2-0.4,0.5-0.9,0.7-1.3c0.2-0.2,0.4-0.2,0.6,0c0.1,0.2,0.2,0.3,0.3,0.5c0.1,0,0.4,0.1,0.9,0.3l0.2-0.9
		C62.1,68.3,61.3,68.2,60.6,68z M56,60.2l-0.7,1c0.2,0,0.6,0.1,1.2,0.1c0.6,0,1,0,1.2,0l0.1-0.6C57.2,60.4,56.6,60.3,56,60.2z
		 M55.7,56.9c0.4,0,0.7-0.3,0.9-0.6c-0.2-0.2-0.5-0.3-0.7-0.5L55.7,56.9z M57.6,73.2c0.3,0.1,0.5,0,0.6-0.2c0-0.4,0.1-0.7,0.2-0.8
		L57.6,73.2z M59,66.6c0.4-0.4,0.7-0.6,0.8-0.8c0-0.1,0-0.3,0-0.4L59,66.6z M59.6,57.1c0.5,0,0.9-0.2,1.3-0.7
		c-0.2-0.2-0.3-0.3-0.5-0.4L59.6,57.1z M60.5,64.2c0.6-0.1,0.9-0.4,1.1-0.7c-0.1-0.1-0.2-0.2-0.3-0.3L60.5,64.2z"/>
</g>
</svg>
